<?xml version="1.0" encoding="UTF-8" standalone="no"?>
<svg xmlns:dc="http://purl.org/dc/elements/1.1/" xmlns:cc="http://creativecommons.org/ns#" xmlns:rdf="http://www.w3.org/1999/02/22-rdf-syntax-ns#" xmlns:svg="http://www.w3.org/2000/svg" xmlns="http://www.w3.org/2000/svg" id="svg8" version="1.1" viewBox="0 0 11.288889 11.288889" height="24pt" width="24pt"> <defs id="defs2" /> <metadata id="metadata5"> <rdf:RDF> <cc:Work rdf:about=""> <dc:format>image/svg+xml</dc:format> <dc:type rdf:resource="http://purl.org/dc/dcmitype/StillImage" /> <dc:title></dc:title> </cc:Work> </rdf:RDF> </metadata> <g transform="translate(0,-285.71111)" id="layer1"> <g style="fill:#ffffff" transform="matrix(0.02505806,0,0,0.02505806,1.2524859,286.86397)" id="g2169"> <g style="fill:#ffffff" id="g2112"> <path style="fill:#ffffff" d="M 303.118,0 H 56.882 C 25.516,0 0,25.516 0,56.882 V 303.118 C 0,334.484 25.516,360 56.882,360 H 303.118 C 334.484,360 360,334.484 360,303.118 V 56.882 C 360,25.516 334.484,0 303.118,0 Z m 18.96,303.118 c 0,10.454 -8.506,18.96 -18.959,18.96 H 56.882 c -10.454,0 -18.959,-8.506 -18.959,-18.96 V 56.882 c 0,-10.454 8.506,-18.959 18.959,-18.959 h 246.236 c 10.454,0 18.959,8.506 18.959,18.959 v 246.236 z" id="path2108" /><path style="fill:#ffffff" d="m 249.844,106.585 c -6.116,0 -11.864,2.383 -16.19,6.71 l -84.719,84.857 -22.58,-22.578 c -4.323,-4.324 -10.071,-6.706 -16.185,-6.706 -6.115,0 -11.863,2.382 -16.187,6.705 -4.323,4.323 -6.703,10.071 -6.703,16.185 0,6.114 2.38,11.862 6.703,16.184 l 38.77,38.77 c 4.323,4.324 10.071,6.706 16.186,6.706 6.112,0 11.862,-2.383 16.19,-6.71 L 266.03,145.662 c 8.923,-8.926 8.922,-23.448 0,-32.374 -4.323,-4.322 -10.072,-6.703 -16.186,-6.703 z" id="path2110" /></g> </g> </g> </svg>