<?xml version="1.0" encoding="UTF-8" standalone="no"?>
<svg
   xmlns:dc="http://purl.org/dc/elements/1.1/"
   xmlns:cc="http://creativecommons.org/ns#"
   xmlns:rdf="http://www.w3.org/1999/02/22-rdf-syntax-ns#"
   xmlns:svg="http://www.w3.org/2000/svg"
   xmlns="http://www.w3.org/2000/svg"
   id="svg8"
   version="1.1"
   viewBox="0 0 32 32"
   height="32mm"
   width="32mm">
  <defs
     id="defs2" />
  <metadata
     id="metadata5">
    <rdf:RDF>
      <cc:Work
         rdf:about="">
        <dc:format>image/svg+xml</dc:format>
        <dc:type
           rdf:resource="http://purl.org/dc/dcmitype/StillImage" />
        <dc:title></dc:title>
      </cc:Work>
    </rdf:RDF>
  </metadata>
  <g
     transform="translate(0,-265)"
     id="layer1">
    <g
       style="fill:#808080;stroke-width:4.57142878"
       transform="matrix(0.05787761,0,0,0.05787761,1.7386906,266.98868)"
       id="g897">
      <g
         style="fill:#808080;stroke-width:4.57142878"
         id="g833">
	<g
   style="fill:#808080;stroke-width:4.57142878"
   id="g831">
		<g
   style="fill:#808080;stroke-width:4.57142878"
   id="g829">
			<path
   style="fill:#808080;stroke-width:4.57142878"
   d="m 128,480 c 11.776,0 21.333,-9.557 21.333,-21.333 0,-11.776 -9.557,-21.333 -21.333,-21.333 -11.776,0 -21.333,9.557 -21.333,21.333 0,11.776 9.557,21.333 21.333,21.333 z"
   id="path815" />

			<path
   style="fill:#808080;stroke-width:4.57142878"
   d="m 203.093,149.333 h -0.213 c -5.888,0 -10.56,4.779 -10.56,10.667 0,5.888 4.885,10.667 10.773,10.667 5.888,0 10.667,-4.779 10.667,-10.667 0,-5.888 -4.779,-10.667 -10.667,-10.667 z"
   id="path817" />

			<path
   style="fill:#808080;stroke-width:4.57142878"
   d="M 149.333,149.333 H 106.666 C 100.779,149.333 96,154.112 96,160 c 0,5.888 4.779,10.667 10.667,10.667 h 42.667 c 5.888,0 10.667,-4.779 10.667,-10.667 0,-5.888 -4.78,-10.667 -10.668,-10.667 z"
   id="path819" />

			<path
   style="fill:#808080;stroke-width:4.57142878"
   d="m 298.667,458.667 c 0,11.776 9.557,21.333 21.333,21.333 11.776,0 21.333,-9.557 21.333,-21.333 0,-11.776 -9.557,-21.333 -21.333,-21.333 -11.776,0 -21.333,9.557 -21.333,21.333 z"
   id="path821" />

			<path
   style="fill:#808080;stroke-width:4.57142878"
   d="M 458.667,0 H 181.333 C 151.936,0 128,23.936 128,53.333 v 21.333 c 0,5.888 4.779,10.667 10.667,10.667 5.888,0 10.667,-4.779 10.667,-10.667 V 53.333 c 0,-17.643 14.357,-32 32,-32 h 277.333 c 17.643,0 32,14.357 32,32 v 405.333 c 0,17.643 -14.357,32 -32,32 H 277.333 c -5.888,0 -10.667,4.779 -10.667,10.667 0,5.888 4.779,10.667 10.667,10.667 H 458.666 C 488.064,512 512,488.064 512,458.667 V 53.333 C 512,23.936 488.064,0 458.667,0 Z"
   id="path823" />

			<path
   style="fill:#808080;stroke-width:4.57142878"
   d="M 202.667,106.667 H 53.333 C 23.936,106.667 0,130.603 0,160 V 458.667 C 0,488.064 23.936,512 53.333,512 H 202.666 C 232.064,512 256,488.064 256,458.667 V 160 c 0,-29.397 -23.936,-53.333 -53.333,-53.333 z m 32,352 c 0,17.643 -14.357,32 -32,32 H 53.333 c -17.643,0 -32,-14.357 -32,-32 v -32 h 213.333 v 32 z m 0,-53.334 H 21.333 V 160 c 0,-17.643 14.357,-32 32,-32 h 149.333 c 17.643,0 32,14.357 32,32 v 245.333 z"
   id="path825" />

			<path
   style="fill:#808080;stroke-width:4.57142878"
   d="M 469.333,416 V 53.333 c 0,-5.888 -4.779,-10.667 -10.667,-10.667 H 181.333 c -5.888,0 -10.667,4.779 -10.667,10.667 v 21.333 c 0,5.888 4.779,10.667 10.667,10.667 5.888,0 10.667,-4.778 10.667,-10.666 V 64 H 448 V 405.333 H 288 c -5.888,0 -10.667,4.779 -10.667,10.667 0,5.888 4.779,10.667 10.667,10.667 h 170.667 c 5.888,0 10.666,-4.779 10.666,-10.667 z"
   id="path827" />

		</g>

	</g>

</g>
      <g
         style="fill:#808080;stroke-width:4.57142878"
         id="g835">
</g>
      <g
         style="fill:#808080;stroke-width:4.57142878"
         id="g837">
</g>
      <g
         style="fill:#808080;stroke-width:4.57142878"
         id="g839">
</g>
      <g
         style="fill:#808080;stroke-width:4.57142878"
         id="g841">
</g>
      <g
         style="fill:#808080;stroke-width:4.57142878"
         id="g843">
</g>
      <g
         style="fill:#808080;stroke-width:4.57142878"
         id="g845">
</g>
      <g
         style="fill:#808080;stroke-width:4.57142878"
         id="g847">
</g>
      <g
         style="fill:#808080;stroke-width:4.57142878"
         id="g849">
</g>
      <g
         style="fill:#808080;stroke-width:4.57142878"
         id="g851">
</g>
      <g
         style="fill:#808080;stroke-width:4.57142878"
         id="g853">
</g>
      <g
         style="fill:#808080;stroke-width:4.57142878"
         id="g855">
</g>
      <g
         style="fill:#808080;stroke-width:4.57142878"
         id="g857">
</g>
      <g
         style="fill:#808080;stroke-width:4.57142878"
         id="g859">
</g>
      <g
         style="fill:#808080;stroke-width:4.57142878"
         id="g861">
</g>
      <g
         style="fill:#808080;stroke-width:4.57142878"
         id="g863">
</g>
    </g>
  </g>
</svg>
